v 0.0 0.0 1.4142135623730951
v 0.0 0.0 -1.4142135623730951
v 1.4142135623730951 0.0 0.0
v -1.4142135623730951 0.0 0.0
v 0.0 1.4142135623730951 0.0
v 0.0 -1.4142135623730951 0.0
v 1.0 0.0 1.0
v 1.0 0.0 -1.0
v -1.0 0.0 1.0
v -1.0 0.0 -1.0
v 1.0 1.0 0.0
v 1.0 -1.0 0.0
v -1.0 1.0 0.0
v -1.0 -1.0 0.0
v 0.0 1.0 1.0
v 0.0 1.0 -1.0
v 0.0 -1.0 1.0
v 0.0 -1.0 -1.0
v 0.7734590803390136 0.7734590803390136 0.7734590803390136
v 0.7734590803390136 0.7734590803390136 -0.7734590803390136
v 0.7734590803390136 -0.7734590803390136 0.7734590803390136
v 0.7734590803390136 -0.7734590803390136 -0.7734590803390136
v -0.7734590803390136 0.7734590803390136 0.7734590803390136
v -0.7734590803390136 0.7734590803390136 -0.7734590803390136
v -0.7734590803390136 -0.7734590803390136 0.7734590803390136
v -0.7734590803390136 -0.7734590803390136 -0.7734590803390136
f 1 7 19 15
f 1 15 23 9
f 1 9 25 17
f 1 17 21 7
f 2 10 24 16
f 2 16 20 8
f 2 8 22 18
f 2 18 26 10
f 3 8 20 11
f 3 11 19 7
f 3 7 21 12
f 3 12 22 8
f 4 9 23 13
f 4 13 24 10
f 4 10 26 14
f 4 14 25 9
f 5 11 20 16
f 5 16 24 13
f 5 13 23 15
f 5 15 19 11
f 6 12 21 17
f 6 17 25 14
f 6 14 26 18
f 6 18 22 12
