v 0.0 0.0 2.23606797749979
v 0.0 0.0 -2.23606797749979
v 2.23606797749979 0.0 0.0
v -2.23606797749979 0.0 0.0
v 0.0 2.23606797749979 0.0
v 0.0 -2.23606797749979 0.0
v 0.0 0.7834576353408995 2.051118718068096
v 0.0 0.7834576353408995 -2.051118718068096
v 0.0 -0.7834576353408995 2.051118718068096
v 0.0 -0.7834576353408995 -2.051118718068096
v 2.051118718068096 0.0 0.7834576353408995
v 2.051118718068096 0.0 -0.7834576353408995
v -2.051118718068096 0.0 0.7834576353408995
v -2.051118718068096 0.0 -0.7834576353408995
v 0.7834576353408995 2.051118718068096 0.0
v 0.7834576353408995 -2.051118718068096 0.0
v -0.7834576353408995 2.051118718068096 0.0
v -0.7834576353408995 -2.051118718068096 0.0
v 1.2060113295832984 0.0 1.9513673220832282
v 1.2060113295832984 0.0 -1.9513673220832282
v -1.2060113295832984 0.0 1.9513673220832282
v -1.2060113295832984 0.0 -1.9513673220832282
v 1.9513673220832282 1.2060113295832984 0.0
v 1.9513673220832282 -1.2060113295832984 0.0
v -1.9513673220832282 1.2060113295832984 0.0
v -1.9513673220832282 -1.2060113295832984 0.0
v 0.0 1.9513673220832282 1.2060113295832984
v 0.0 1.9513673220832282 -1.2060113295832984
v 0.0 -1.9513673220832282 1.2060113295832984
v 0.0 -1.9513673220832282 -1.2060113295832984
v 0.6909830056250525 1.118033988749895 1.8090169943749475
v 0.6909830056250525 1.118033988749895 -1.8090169943749475
v 0.6909830056250525 -1.118033988749895 1.8090169943749475
v 0.6909830056250525 -1.118033988749895 -1.8090169943749475
v -0.6909830056250525 1.118033988749895 1.8090169943749475
v -0.6909830056250525 1.118033988749895 -1.8090169943749475
v -0.6909830056250525 -1.118033988749895 1.8090169943749475
v -0.6909830056250525 -1.118033988749895 -1.8090169943749475
v 1.8090169943749475 0.6909830056250525 1.118033988749895
v 1.8090169943749475 0.6909830056250525 -1.118033988749895
v 1.8090169943749475 -0.6909830056250525 1.118033988749895
v 1.8090169943749475 -0.6909830056250525 -1.118033988749895
v -1.8090169943749475 0.6909830056250525 1.118033988749895
v -1.8090169943749475 0.6909830056250525 -1.118033988749895
v -1.8090169943749475 -0.6909830056250525 1.118033988749895
v -1.8090169943749475 -0.6909830056250525 -1.118033988749895
v 1.118033988749895 1.8090169943749475 0.6909830056250525
v 1.118033988749895 1.8090169943749475 -0.6909830056250525
v 1.118033988749895 -1.8090169943749475 0.6909830056250525
v 1.118033988749895 -1.8090169943749475 -0.6909830056250525
v -1.118033988749895 1.8090169943749475 0.6909830056250525
v -1.118033988749895 1.8090169943749475 -0.6909830056250525
v -1.118033988749895 -1.8090169943749475 0.6909830056250525
v -1.118033988749895 -1.8090169943749475 -0.6909830056250525
v 1.2676610827271964 1.2676610827271964 1.2676610827271964
v 1.2676610827271964 1.2676610827271964 -1.2676610827271964
v 1.2676610827271964 -1.2676610827271964 1.2676610827271964
v 1.2676610827271964 -1.2676610827271964 -1.2676610827271964
v -1.2676610827271964 1.2676610827271964 1.2676610827271964
v -1.2676610827271964 1.2676610827271964 -1.2676610827271964
v -1.2676610827271964 -1.2676610827271964 1.2676610827271964
v -1.2676610827271964 -1.2676610827271964 -1.2676610827271964
f 19 1 9 33
f 19 33 57 41
f 19 41 11 39
f 19 39 55 31
f 19 31 7 1
f 20 2 8 32
f 20 32 56 40
f 20 40 12 42
f 20 42 58 34
f 20 34 10 2
f 21 1 7 35
f 21 35 59 43
f 21 43 13 45
f 21 45 61 37
f 21 37 9 1
f 22 2 10 38
f 22 38 62 46
f 22 46 14 44
f 22 44 60 36
f 22 36 8 2
f 23 3 12 40
f 23 40 56 48
f 23 48 15 47
f 23 47 55 39
f 23 39 11 3
f 24 3 11 41
f 24 41 57 49
f 24 49 16 50
f 24 50 58 42
f 24 42 12 3
f 25 4 13 43
f 25 43 59 51
f 25 51 17 52
f 25 52 60 44
f 25 44 14 4
f 26 4 14 46
f 26 46 62 54
f 26 54 18 53
f 26 53 61 45
f 26 45 13 4
f 27 5 17 51
f 27 51 59 35
f 27 35 7 31
f 27 31 55 47
f 27 47 15 5
f 28 5 15 48
f 28 48 56 32
f 28 32 8 36
f 28 36 60 52
f 28 52 17 5
f 29 6 16 49
f 29 49 57 33
f 29 33 9 37
f 29 37 61 53
f 29 53 18 6
f 30 6 18 54
f 30 54 62 38
f 30 38 10 34
f 30 34 58 50
f 30 50 16 6
