v 0.0 0.0 3.802983248181589
v 0.0 0.0 -3.802983248181589
v 3.802983248181589 0.0 0.0
v -3.802983248181589 0.0 0.0
v 0.0 3.802983248181589 0.0
v 0.0 -3.802983248181589 0.0
v 0.0 1.381966011250105 3.618033988749895
v 0.0 1.381966011250105 -3.618033988749895
v 0.0 -1.381966011250105 3.618033988749895
v 0.0 -1.381966011250105 -3.618033988749895
v 3.618033988749895 0.0 1.381966011250105
v 3.618033988749895 0.0 -1.381966011250105
v -3.618033988749895 0.0 1.381966011250105
v -3.618033988749895 0.0 -1.381966011250105
v 1.381966011250105 3.618033988749895 0.0
v 1.381966011250105 -3.618033988749895 0.0
v -1.381966011250105 3.618033988749895 0.0
v -1.381966011250105 -3.618033988749895 0.0
v 2.170820393249937 0.0 3.5124611797498106
v 2.170820393249937 0.0 -3.5124611797498106
v -2.170820393249937 0.0 3.5124611797498106
v -2.170820393249937 0.0 -3.5124611797498106
v 3.5124611797498106 2.170820393249937 0.0
v 3.5124611797498106 -2.170820393249937 0.0
v -3.5124611797498106 2.170820393249937 0.0
v -3.5124611797498106 -2.170820393249937 0.0
v 0.0 3.5124611797498106 2.170820393249937
v 0.0 3.5124611797498106 -2.170820393249937
v 0.0 -3.5124611797498106 2.170820393249937
v 0.0 -3.5124611797498106 -2.170820393249937
v 1.1751864530113494 1.9014916240907944 3.0766780771021436
v 1.1751864530113494 1.9014916240907944 -3.0766780771021436
v 1.1751864530113494 -1.9014916240907944 3.0766780771021436
v 1.1751864530113494 -1.9014916240907944 -3.0766780771021436
v -1.1751864530113494 1.9014916240907944 3.0766780771021436
v -1.1751864530113494 1.9014916240907944 -3.0766780771021436
v -1.1751864530113494 -1.9014916240907944 3.0766780771021436
v -1.1751864530113494 -1.9014916240907944 -3.0766780771021436
v 3.0766780771021436 1.1751864530113494 1.9014916240907944
v 3.0766780771021436 1.1751864530113494 -1.9014916240907944
v 3.0766780771021436 -1.1751864530113494 1.9014916240907944
v 3.0766780771021436 -1.1751864530113494 -1.9014916240907944
v -3.0766780771021436 1.1751864530113494 1.9014916240907944
v -3.0766780771021436 1.1751864530113494 -1.9014916240907944
v -3.0766780771021436 -1.1751864530113494 1.9014916240907944
v -3.0766780771021436 -1.1751864530113494 -1.9014916240907944
v 1.9014916240907944 3.0766780771021436 1.1751864530113494
v 1.9014916240907944 3.0766780771021436 -1.1751864530113494
v 1.9014916240907944 -3.0766780771021436 1.1751864530113494
v 1.9014916240907944 -3.0766780771021436 -1.1751864530113494
v -1.9014916240907944 3.0766780771021436 1.1751864530113494
v -1.9014916240907944 3.0766780771021436 -1.1751864530113494
v -1.9014916240907944 -3.0766780771021436 1.1751864530113494
v -1.9014916240907944 -3.0766780771021436 -1.1751864530113494
v 2.23606797749979 2.23606797749979 2.23606797749979
v 2.23606797749979 2.23606797749979 -2.23606797749979
v 2.23606797749979 -2.23606797749979 2.23606797749979
v 2.23606797749979 -2.23606797749979 -2.23606797749979
v -2.23606797749979 2.23606797749979 2.23606797749979
v -2.23606797749979 2.23606797749979 -2.23606797749979
v -2.23606797749979 -2.23606797749979 2.23606797749979
v -2.23606797749979 -2.23606797749979 -2.23606797749979
f 19 1 9
f 19 9 33
f 19 33 57
f 19 57 41
f 19 41 11
f 19 11 39
f 19 39 55
f 19 55 31
f 19 31 7
f 19 7 1
f 20 2 8
f 20 8 32
f 20 32 56
f 20 56 40
f 20 40 12
f 20 12 42
f 20 42 58
f 20 58 34
f 20 34 10
f 20 10 2
f 21 1 7
f 21 7 35
f 21 35 59
f 21 59 43
f 21 43 13
f 21 13 45
f 21 45 61
f 21 61 37
f 21 37 9
f 21 9 1
f 22 2 10
f 22 10 38
f 22 38 62
f 22 62 46
f 22 46 14
f 22 14 44
f 22 44 60
f 22 60 36
f 22 36 8
f 22 8 2
f 23 3 12
f 23 12 40
f 23 40 56
f 23 56 48
f 23 48 15
f 23 15 47
f 23 47 55
f 23 55 39
f 23 39 11
f 23 11 3
f 24 3 11
f 24 11 41
f 24 41 57
f 24 57 49
f 24 49 16
f 24 16 50
f 24 50 58
f 24 58 42
f 24 42 12
f 24 12 3
f 25 4 13
f 25 13 43
f 25 43 59
f 25 59 51
f 25 51 17
f 25 17 52
f 25 52 60
f 25 60 44
f 25 44 14
f 25 14 4
f 26 4 14
f 26 14 46
f 26 46 62
f 26 62 54
f 26 54 18
f 26 18 53
f 26 53 61
f 26 61 45
f 26 45 13
f 26 13 4
f 27 5 17
f 27 17 51
f 27 51 59
f 27 59 35
f 27 35 7
f 27 7 31
f 27 31 55
f 27 55 47
f 27 47 15
f 27 15 5
f 28 5 15
f 28 15 48
f 28 48 56
f 28 56 32
f 28 32 8
f 28 8 36
f 28 36 60
f 28 60 52
f 28 52 17
f 28 17 5
f 29 6 16
f 29 16 49
f 29 49 57
f 29 57 33
f 29 33 9
f 29 9 37
f 29 37 61
f 29 61 53
f 29 53 18
f 29 18 6
f 30 6 18
f 30 18 54
f 30 54 62
f 30 62 38
f 30 38 10
f 30 10 34
f 30 34 58
f 30 58 50
f 30 50 16
f 30 16 6
