v 0.0 0.0 2.6754174373368365
v 0.0 0.0 -2.6754174373368365
v 2.6754174373368365 0.0 0.0
v -2.6754174373368365 0.0 0.0
v 0.0 2.6754174373368365 0.0
v 0.0 -2.6754174373368365 0.0
v 1.6407544820340814 0.0 1.6407544820340814
v 1.6407544820340814 0.0 -1.6407544820340814
v -1.6407544820340814 0.0 1.6407544820340814
v -1.6407544820340814 0.0 -1.6407544820340814
v 1.6407544820340814 1.6407544820340814 0.0
v 1.6407544820340814 -1.6407544820340814 0.0
v -1.6407544820340814 1.6407544820340814 0.0
v -1.6407544820340814 -1.6407544820340814 0.0
v 0.0 1.6407544820340814 1.6407544820340814
v 0.0 1.6407544820340814 -1.6407544820340814
v 0.0 -1.6407544820340814 1.6407544820340814
v 0.0 -1.6407544820340814 -1.6407544820340814
v 1.4142135623730951 1.4142135623730951 1.4142135623730951
v 1.4142135623730951 1.4142135623730951 -1.4142135623730951
v 1.4142135623730951 -1.4142135623730951 1.4142135623730951
v 1.4142135623730951 -1.4142135623730951 -1.4142135623730951
v -1.4142135623730951 1.4142135623730951 1.4142135623730951
v -1.4142135623730951 1.4142135623730951 -1.4142135623730951
v -1.4142135623730951 -1.4142135623730951 1.4142135623730951
v -1.4142135623730951 -1.4142135623730951 -1.4142135623730951
f 1 7 19
f 1 19 15
f 1 15 23
f 1 23 9
f 1 9 25
f 1 25 17
f 1 17 21
f 1 21 7
f 2 8 22
f 2 22 18
f 2 18 26
f 2 26 10
f 2 10 24
f 2 24 16
f 2 16 20
f 2 20 8
f 3 7 21
f 3 21 12
f 3 12 22
f 3 22 8
f 3 8 20
f 3 20 11
f 3 11 19
f 3 19 7
f 4 9 23
f 4 23 13
f 4 13 24
f 4 24 10
f 4 10 26
f 4 26 14
f 4 14 25
f 4 25 9
f 5 11 20
f 5 20 16
f 5 16 24
f 5 24 13
f 5 13 23
f 5 23 15
f 5 15 19
f 5 19 11
f 6 12 21
f 6 21 17
f 6 17 25
f 6 25 14
f 6 14 26
f 6 26 18
f 6 18 22
f 6 22 12
