v 0.0 0.5 1.3090169943749475
v 0.0 0.5 -1.3090169943749475
v 0.0 -0.5 1.3090169943749475
v 0.0 -0.5 -1.3090169943749475
v 1.3090169943749475 0.0 0.5
v 1.3090169943749475 0.0 -0.5
v -1.3090169943749475 0.0 0.5
v -1.3090169943749475 0.0 -0.5
v 0.5 1.3090169943749475 0.0
v 0.5 -1.3090169943749475 0.0
v -0.5 1.3090169943749475 0.0
v -0.5 -1.3090169943749475 0.0
v 0.8090169943749475 0.8090169943749475 0.8090169943749475
v 0.8090169943749475 0.8090169943749475 -0.8090169943749475
v 0.8090169943749475 -0.8090169943749475 0.8090169943749475
v 0.8090169943749475 -0.8090169943749475 -0.8090169943749475
v -0.8090169943749475 0.8090169943749475 0.8090169943749475
v -0.8090169943749475 0.8090169943749475 -0.8090169943749475
v -0.8090169943749475 -0.8090169943749475 0.8090169943749475
v -0.8090169943749475 -0.8090169943749475 -0.8090169943749475
f 1 3 15 5 13
f 1 13 9 11 17
f 1 17 7 19 3
f 8 7 17 11 18
f 8 18 2 4 20
f 8 20 12 19 7
f 10 12 20 4 16
f 10 16 6 5 15
f 10 15 3 19 12
f 14 2 18 11 9
f 14 9 13 5 6
f 14 6 16 4 2
