v 0.0 -0.5 0.30901699437494745
v 0.0 -0.5 -0.30901699437494745
v 0.0 0.5 0.30901699437494745
v 0.0 0.5 -0.30901699437494745
v -0.5 0.30901699437494745 0.0
v 0.5 0.30901699437494745 0.0
v -0.5 -0.30901699437494745 0.0
v 0.5 -0.30901699437494745 0.0
v 0.30901699437494745 0.0 -0.5
v 0.30901699437494745 0.0 0.5
v -0.30901699437494745 0.0 -0.5
v -0.30901699437494745 0.0 0.5
f 1 3 11
f 1 11 6
f 1 6 5
f 1 5 9
f 1 9 3
f 4 2 12
f 4 12 8
f 4 8 7
f 4 7 10
f 4 10 2
f 3 7 8
f 3 8 11
f 11 8 12
f 11 12 6
f 6 12 2
f 6 2 5
f 5 2 10
f 5 10 9
f 9 10 7
f 9 7 3
