v 0.0 0.0 1.618033988749895
v 0.0 0.0 -1.618033988749895
v 1.618033988749895 0.0 0.0
v -1.618033988749895 0.0 0.0
v 0.0 1.618033988749895 0.0
v 0.0 -1.618033988749895 0.0
v 0.5 0.8090169943749475 1.3090169943749475
v 0.5 0.8090169943749475 -1.3090169943749475
v 0.5 -0.8090169943749475 1.3090169943749475
v 0.5 -0.8090169943749475 -1.3090169943749475
v -0.5 0.8090169943749475 1.3090169943749475
v -0.5 0.8090169943749475 -1.3090169943749475
v -0.5 -0.8090169943749475 1.3090169943749475
v -0.5 -0.8090169943749475 -1.3090169943749475
v 1.3090169943749475 0.5 0.8090169943749475
v 1.3090169943749475 0.5 -0.8090169943749475
v 1.3090169943749475 -0.5 0.8090169943749475
v 1.3090169943749475 -0.5 -0.8090169943749475
v -1.3090169943749475 0.5 0.8090169943749475
v -1.3090169943749475 0.5 -0.8090169943749475
v -1.3090169943749475 -0.5 0.8090169943749475
v -1.3090169943749475 -0.5 -0.8090169943749475
v 0.8090169943749475 1.3090169943749475 0.5
v 0.8090169943749475 1.3090169943749475 -0.5
v 0.8090169943749475 -1.3090169943749475 0.5
v 0.8090169943749475 -1.3090169943749475 -0.5
v -0.8090169943749475 1.3090169943749475 0.5
v -0.8090169943749475 1.3090169943749475 -0.5
v -0.8090169943749475 -1.3090169943749475 0.5
v -0.8090169943749475 -1.3090169943749475 -0.5
f 1 9 17 15 7
f 1 11 19 21 13
f 2 8 16 18 10
f 2 14 22 20 12
f 3 16 24 23 15
f 3 17 25 26 18
f 4 19 27 28 20
f 4 22 30 29 21
f 5 24 8 12 28
f 5 27 11 7 23
f 6 25 9 13 29
f 6 30 14 10 26
f 1 7 11
f 1 13 9
f 2 10 14
f 2 12 8
f 3 15 17
f 3 18 16
f 4 20 22
f 4 21 19
f 5 23 24
f 5 28 27
f 6 26 25
f 6 29 30
f 7 15 23
f 8 24 16
f 9 25 17
f 10 18 26
f 11 27 19
f 12 20 28
f 13 21 29
f 14 30 22
