v -0.19289371135235903 -0.21848337012732122 -2.0970538352520878
v -0.19289371135235903 0.21848337012732122 2.0970538352520878
v 0.19289371135235903 0.21848337012732122 -2.0970538352520878
v 0.19289371135235903 -0.21848337012732122 2.0970538352520878
v -2.0970538352520878 -0.19289371135235903 -0.21848337012732122
v -2.0970538352520878 0.19289371135235903 0.21848337012732122
v 2.0970538352520878 0.19289371135235903 -0.21848337012732122
v 2.0970538352520878 -0.19289371135235903 0.21848337012732122
v -0.21848337012732122 -2.0970538352520878 -0.19289371135235903
v -0.21848337012732122 2.0970538352520878 0.19289371135235903
v 0.21848337012732122 2.0970538352520878 -0.19289371135235903
v 0.21848337012732122 -2.0970538352520878 0.19289371135235903
v 0.0 -0.7554672605165956 -1.9778389654202186
v 0.0 -0.7554672605165956 1.9778389654202186
v 0.0 0.7554672605165956 -1.9778389654202186
v 0.0 0.7554672605165956 1.9778389654202186
v -1.9778389654202186 0.0 -0.7554672605165956
v -1.9778389654202186 0.0 0.7554672605165956
v 1.9778389654202186 0.0 -0.7554672605165956
v 1.9778389654202186 0.0 0.7554672605165956
v -0.7554672605165956 -1.9778389654202186 0.0
v -0.7554672605165956 1.9778389654202186 0.0
v 0.7554672605165956 -1.9778389654202186 0.0
v 0.7554672605165956 1.9778389654202186 0.0
v -1.167123436475334 0.0 -1.8884453892836692
v -1.167123436475334 0.0 1.8884453892836692
v 1.167123436475334 0.0 -1.8884453892836692
v 1.167123436475334 0.0 1.8884453892836692
v -1.8884453892836692 -1.167123436475334 0.0
v -1.8884453892836692 1.167123436475334 0.0
v 1.8884453892836692 -1.167123436475334 0.0
v 1.8884453892836692 1.167123436475334 0.0
v 0.0 -1.8884453892836692 -1.167123436475334
v 0.0 -1.8884453892836692 1.167123436475334
v 0.0 1.8884453892836692 -1.167123436475334
v 0.0 1.8884453892836692 1.167123436475334
v -0.5677153694669214 0.8249575526762758 -1.8654013108176957
v -0.5677153694669214 -0.8249575526762758 1.8654013108176957
v 0.5677153694669214 -0.8249575526762758 -1.8654013108176957
v 0.5677153694669214 0.8249575526762758 1.8654013108176957
v -1.8654013108176957 0.5677153694669214 -0.8249575526762758
v -1.8654013108176957 -0.5677153694669214 0.8249575526762758
v 1.8654013108176957 -0.5677153694669214 -0.8249575526762758
v 1.8654013108176957 0.5677153694669214 0.8249575526762758
v -0.8249575526762758 1.8654013108176957 -0.5677153694669214
v -0.8249575526762758 -1.8654013108176957 0.5677153694669214
v 0.8249575526762758 -1.8654013108176957 -0.5677153694669214
v 0.8249575526762758 1.8654013108176957 0.5677153694669214
v -0.3748216581145623 -1.1370661338605041 -1.7461864409858263
v -0.3748216581145623 1.1370661338605041 1.7461864409858263
v 0.3748216581145623 1.1370661338605041 -1.7461864409858263
v 0.3748216581145623 -1.1370661338605041 1.7461864409858263
v -1.7461864409858263 -0.3748216581145623 -1.1370661338605041
v -1.7461864409858263 0.3748216581145623 1.1370661338605041
v 1.7461864409858263 0.3748216581145623 -1.1370661338605041
v 1.7461864409858263 -0.3748216581145623 1.1370661338605041
v -1.1370661338605041 -1.7461864409858263 -0.3748216581145623
v -1.1370661338605041 1.7461864409858263 0.3748216581145623
v 1.1370661338605041 1.7461864409858263 -0.3748216581145623
v 1.1370661338605041 -1.7461864409858263 0.3748216581145623
v -0.9212288883095505 -0.9599877013915838 -1.6469179406903744
v -0.9212288883095505 0.9599877013915838 1.6469179406903744
v 0.9212288883095505 0.9599877013915838 -1.6469179406903744
v 0.9212288883095505 -0.9599877013915838 1.6469179406903744
v -1.6469179406903744 -0.9212288883095505 -0.9599877013915838
v -1.6469179406903744 0.9212288883095505 0.9599877013915838
v 1.6469179406903744 0.9212288883095505 -0.9599877013915838
v 1.6469179406903744 -0.9212288883095505 0.9599877013915838
v -0.9599877013915838 -1.6469179406903744 -0.9212288883095505
v -0.9599877013915838 1.6469179406903744 0.9212288883095505
v 0.9599877013915838 1.6469179406903744 -0.9212288883095505
v 0.9599877013915838 -1.6469179406903744 0.9212288883095505
v -0.7283351769571915 1.2720962825758122 -1.527703070858505
v -0.7283351769571915 -1.2720962825758122 1.527703070858505
v 0.7283351769571915 -1.2720962825758122 -1.527703070858505
v 0.7283351769571915 1.2720962825758122 1.527703070858505
v -1.527703070858505 0.7283351769571915 -1.2720962825758122
v -1.527703070858505 -0.7283351769571915 1.2720962825758122
v 1.527703070858505 -0.7283351769571915 -1.2720962825758122
v 1.527703070858505 0.7283351769571915 1.2720962825758122
v -1.2720962825758122 1.527703070858505 -0.7283351769571915
v -1.2720962825758122 -1.527703070858505 0.7283351769571915
v 1.2720962825758122 -1.527703070858505 -0.7283351769571915
v 1.2720962825758122 1.527703070858505 0.7283351769571915
v -1.2223717049036231 -1.2223717049036231 -1.2223717049036231
v -1.2223717049036231 -1.2223717049036231 1.2223717049036231
v -1.2223717049036231 1.2223717049036231 -1.2223717049036231
v -1.2223717049036231 1.2223717049036231 1.2223717049036231
v 1.2223717049036231 -1.2223717049036231 -1.2223717049036231
v 1.2223717049036231 -1.2223717049036231 1.2223717049036231
v 1.2223717049036231 1.2223717049036231 -1.2223717049036231
v 1.2223717049036231 1.2223717049036231 1.2223717049036231
f 25 37 15 3 1
f 25 77 87 73 37
f 25 53 17 41 77
f 25 61 85 65 53
f 25 1 13 49 61
f 26 38 14 4 2
f 26 78 86 74 38
f 26 54 18 42 78
f 26 62 88 66 54
f 26 2 16 50 62
f 27 39 13 1 3
f 27 79 89 75 39
f 27 55 19 43 79
f 27 63 91 67 55
f 27 3 15 51 63
f 28 40 16 2 4
f 28 80 92 76 40
f 28 56 20 44 80
f 28 64 90 68 56
f 28 4 14 52 64
f 29 42 18 6 5
f 29 82 86 78 42
f 29 57 21 46 82
f 29 65 85 69 57
f 29 5 17 53 65
f 30 41 17 5 6
f 30 81 87 77 41
f 30 58 22 45 81
f 30 66 88 70 58
f 30 6 18 54 66
f 31 43 19 7 8
f 31 83 89 79 43
f 31 60 23 47 83
f 31 68 90 72 60
f 31 8 20 56 68
f 32 44 20 8 7
f 32 84 92 80 44
f 32 59 24 48 84
f 32 67 91 71 59
f 32 7 19 55 67
f 33 47 23 12 9
f 33 75 89 83 47
f 33 49 13 39 75
f 33 69 85 61 49
f 33 9 21 57 69
f 34 46 21 9 12
f 34 74 86 82 46
f 34 52 14 38 74
f 34 72 90 64 52
f 34 12 23 60 72
f 35 45 22 10 11
f 35 73 87 81 45
f 35 51 15 37 73
f 35 71 91 63 51
f 35 11 24 59 71
f 36 48 24 11 10
f 36 76 92 84 48
f 36 50 16 40 76
f 36 70 88 62 50
f 36 10 22 58 70
