v 0.0 0.0 -1.3614101519264425
v 0.0 0.0 1.3614101519264425
v -1.3614101519264425 0.0 0.0
v 1.3614101519264425 0.0 0.0
v 0.0 -1.3614101519264425 0.0
v 0.0 1.3614101519264425 0.0
v -0.7401837413698572 0.21879664300048043 -1.0236561781126903
v -0.7401837413698572 -0.21879664300048043 1.0236561781126903
v 0.7401837413698572 -0.21879664300048043 -1.0236561781126903
v 0.7401837413698572 0.21879664300048043 1.0236561781126903
v -1.0236561781126903 0.7401837413698572 -0.21879664300048043
v -1.0236561781126903 -0.7401837413698572 0.21879664300048043
v 1.0236561781126903 -0.7401837413698572 -0.21879664300048043
v 1.0236561781126903 0.7401837413698572 0.21879664300048043
v -0.21879664300048043 1.0236561781126903 -0.7401837413698572
v -0.21879664300048043 -1.0236561781126903 0.7401837413698572
v 0.21879664300048043 -1.0236561781126903 -0.7401837413698572
v 0.21879664300048043 1.0236561781126903 0.7401837413698572
v -0.21879664300048043 -0.7401837413698572 -1.0236561781126903
v -0.21879664300048043 0.7401837413698572 1.0236561781126903
v 0.21879664300048043 0.7401837413698572 -1.0236561781126903
v 0.21879664300048043 -0.7401837413698572 1.0236561781126903
v -1.0236561781126903 -0.21879664300048043 -0.7401837413698572
v -1.0236561781126903 0.21879664300048043 0.7401837413698572
v 1.0236561781126903 0.21879664300048043 -0.7401837413698572
v 1.0236561781126903 -0.21879664300048043 0.7401837413698572
v -0.7401837413698572 -1.0236561781126903 -0.21879664300048043
v -0.7401837413698572 1.0236561781126903 0.21879664300048043
v 0.7401837413698572 1.0236561781126903 -0.21879664300048043
v 0.7401837413698572 -1.0236561781126903 0.21879664300048043
v -0.7401837413698572 -0.7401837413698572 -0.7401837413698572
v -0.7401837413698572 -0.7401837413698572 0.7401837413698572
v -0.7401837413698572 0.7401837413698572 -0.7401837413698572
v -0.7401837413698572 0.7401837413698572 0.7401837413698572
v 0.7401837413698572 -0.7401837413698572 -0.7401837413698572
v 0.7401837413698572 -0.7401837413698572 0.7401837413698572
v 0.7401837413698572 0.7401837413698572 -0.7401837413698572
v 0.7401837413698572 0.7401837413698572 0.7401837413698572
f 1 19 31 23 7
f 1 9 35 17 19
f 1 21 37 25 9
f 1 7 33 15 21
f 2 20 34 24 8
f 2 10 38 18 20
f 2 22 36 26 10
f 2 8 32 16 22
f 3 24 34 28 11
f 3 12 32 8 24
f 3 23 31 27 12
f 3 11 33 7 23
f 4 26 36 30 13
f 4 14 38 10 26
f 4 25 37 29 14
f 4 13 35 9 25
f 5 30 36 22 16
f 5 17 35 13 30
f 5 27 31 19 17
f 5 16 32 12 27
f 6 29 37 21 15
f 6 18 38 14 29
f 6 28 34 20 18
f 6 15 33 11 28
