v 0.3748216581145623 -0.33092102472984425 2.0970538352520878
v 0.3748216581145623 0.33092102472984425 -2.0970538352520878
v -0.3748216581145623 0.33092102472984425 2.0970538352520878
v -0.3748216581145623 -0.33092102472984425 -2.0970538352520878
v 2.0970538352520878 -0.3748216581145623 0.33092102472984425
v 2.0970538352520878 0.3748216581145623 -0.33092102472984425
v -2.0970538352520878 0.3748216581145623 0.33092102472984425
v -2.0970538352520878 -0.3748216581145623 -0.33092102472984425
v 0.33092102472984425 -2.0970538352520878 0.3748216581145623
v 0.33092102472984425 2.0970538352520878 -0.3748216581145623
v -0.33092102472984425 2.0970538352520878 0.3748216581145623
v -0.33092102472984425 -2.0970538352520878 -0.3748216581145623
v 0.5677153694669214 0.6430296059140725 1.9778389654202186
v 0.5677153694669214 -0.6430296059140725 -1.9778389654202186
v -0.5677153694669214 -0.6430296059140725 1.9778389654202186
v -0.5677153694669214 0.6430296059140725 -1.9778389654202186
v 1.9778389654202186 0.5677153694669214 0.6430296059140725
v 1.9778389654202186 -0.5677153694669214 -0.6430296059140725
v -1.9778389654202186 -0.5677153694669214 0.6430296059140725
v -1.9778389654202186 0.5677153694669214 -0.6430296059140725
v 0.6430296059140725 1.9778389654202186 0.5677153694669214
v 0.6430296059140725 -1.9778389654202186 -0.5677153694669214
v -0.6430296059140725 -1.9778389654202186 0.5677153694669214
v -0.6430296059140725 1.9778389654202186 -0.5677153694669214
v 0.19289371135235903 -1.2495037884630271 1.7461864409858263
v 0.19289371135235903 1.2495037884630271 -1.7461864409858263
v -0.19289371135235903 1.2495037884630271 1.7461864409858263
v -0.19289371135235903 -1.2495037884630271 -1.7461864409858263
v 1.7461864409858263 -0.19289371135235903 1.2495037884630271
v 1.7461864409858263 0.19289371135235903 -1.2495037884630271
v -1.7461864409858263 0.19289371135235903 1.2495037884630271
v -1.7461864409858263 -0.19289371135235903 -1.2495037884630271
v 1.2495037884630271 -1.7461864409858263 0.19289371135235903
v 1.2495037884630271 1.7461864409858263 -0.19289371135235903
v -1.2495037884630271 1.7461864409858263 0.19289371135235903
v -1.2495037884630271 -1.7461864409858263 -0.19289371135235903
v 1.1031568350717538 -0.8475500467890608 1.6469179406903744
v 1.1031568350717538 0.8475500467890608 -1.6469179406903744
v -1.1031568350717538 0.8475500467890608 1.6469179406903744
v -1.1031568350717538 -0.8475500467890608 -1.6469179406903744
v 1.6469179406903744 -1.1031568350717538 0.8475500467890608
v 1.6469179406903744 1.1031568350717538 -0.8475500467890608
v -1.6469179406903744 1.1031568350717538 0.8475500467890608
v -1.6469179406903744 -1.1031568350717538 -0.8475500467890608
v 0.8475500467890608 -1.6469179406903744 1.1031568350717538
v 0.8475500467890608 1.6469179406903744 -1.1031568350717538
v -0.8475500467890608 1.6469179406903744 1.1031568350717538
v -0.8475500467890608 -1.6469179406903744 -1.1031568350717538
v 1.4152654162559821 0.7283351769571915 1.4540242293380155
v 1.4152654162559821 -0.7283351769571915 -1.4540242293380155
v -1.4152654162559821 -0.7283351769571915 1.4540242293380155
v -1.4152654162559821 0.7283351769571915 -1.4540242293380155
v 1.4540242293380155 1.4152654162559821 0.7283351769571915
v 1.4540242293380155 -1.4152654162559821 -0.7283351769571915
v -1.4540242293380155 -1.4152654162559821 0.7283351769571915
v -1.4540242293380155 1.4152654162559821 -0.7283351769571915
v 0.7283351769571915 1.4540242293380155 1.4152654162559821
v 0.7283351769571915 -1.4540242293380155 -1.4152654162559821
v -0.7283351769571915 -1.4540242293380155 1.4152654162559821
v -0.7283351769571915 1.4540242293380155 -1.4152654162559821
f 1 37 29 49 13
f 2 38 30 50 14
f 3 39 31 51 15
f 4 40 32 52 16
f 5 41 33 54 18
f 6 42 34 53 17
f 7 43 35 56 20
f 8 44 36 55 19
f 9 45 25 59 23
f 10 46 26 60 24
f 11 47 27 57 21
f 12 48 28 58 22
f 1 3 15
f 2 4 16
f 3 1 13
f 4 2 14
f 5 6 17
f 6 5 18
f 7 8 19
f 8 7 20
f 9 12 22
f 10 11 21
f 11 10 24
f 12 9 23
f 13 49 57
f 14 50 58
f 15 51 59
f 16 52 60
f 17 53 49
f 18 54 50
f 19 55 51
f 20 56 52
f 21 57 53
f 22 58 54
f 23 59 55
f 24 60 56
f 25 45 37
f 26 46 38
f 27 47 39
f 28 48 40
f 29 37 41
f 30 38 42
f 31 39 43
f 32 40 44
f 33 41 45
f 34 42 46
f 35 43 47
f 36 44 48
f 37 1 25
f 38 2 26
f 39 3 27
f 40 4 28
f 41 5 29
f 42 6 30
f 43 7 31
f 44 8 32
f 45 9 33
f 46 10 34
f 47 11 35
f 48 12 36
f 49 29 17
f 50 30 18
f 51 31 19
f 52 32 20
f 53 34 21
f 54 33 22
f 55 36 23
f 56 35 24
f 57 27 13
f 58 28 14
f 59 25 15
f 60 26 16
f 25 1 15
f 26 2 16
f 27 3 13
f 28 4 14
f 29 5 17
f 30 6 18
f 31 7 19
f 32 8 20
f 33 9 22
f 34 10 21
f 35 11 24
f 36 12 23
f 37 45 41
f 38 46 42
f 39 47 43
f 40 48 44
f 49 53 57
f 50 54 58
f 51 55 59
f 52 56 60
