v 0.6212264105565853 0.33775397381375233 1.1426135089259621
v 0.6212264105565853 -0.33775397381375233 -1.1426135089259621
v -0.6212264105565853 -0.33775397381375233 1.1426135089259621
v -0.6212264105565853 0.33775397381375233 -1.1426135089259621
v 1.1426135089259621 0.6212264105565853 0.33775397381375233
v 1.1426135089259621 -0.6212264105565853 -0.33775397381375233
v -1.1426135089259621 -0.6212264105565853 0.33775397381375233
v -1.1426135089259621 0.6212264105565853 -0.33775397381375233
v 0.33775397381375233 1.1426135089259621 0.6212264105565853
v 0.33775397381375233 -1.1426135089259621 -0.6212264105565853
v -0.33775397381375233 -1.1426135089259621 0.6212264105565853
v -0.33775397381375233 1.1426135089259621 -0.6212264105565853
v 0.33775397381375233 -0.6212264105565853 1.1426135089259621
v 0.33775397381375233 0.6212264105565853 -1.1426135089259621
v -0.33775397381375233 0.6212264105565853 1.1426135089259621
v -0.33775397381375233 -0.6212264105565853 -1.1426135089259621
v 1.1426135089259621 -0.33775397381375233 0.6212264105565853
v 1.1426135089259621 0.33775397381375233 -0.6212264105565853
v -1.1426135089259621 0.33775397381375233 0.6212264105565853
v -1.1426135089259621 -0.33775397381375233 -0.6212264105565853
v 0.6212264105565853 -1.1426135089259621 0.33775397381375233
v 0.6212264105565853 1.1426135089259621 -0.33775397381375233
v -0.6212264105565853 1.1426135089259621 0.33775397381375233
v -0.6212264105565853 -1.1426135089259621 -0.33775397381375233
f 3 13 1 15
f 4 14 2 16
f 5 17 6 18
f 8 20 7 19
f 9 22 12 23
f 10 21 11 24
f 1 9 15
f 2 10 16
f 3 11 13
f 4 12 14
f 5 1 17
f 6 2 18
f 7 3 19
f 8 4 20
f 9 5 22
f 10 6 21
f 11 7 24
f 12 8 23
f 13 17 1
f 14 18 2
f 15 19 3
f 16 20 4
f 17 21 6
f 18 22 5
f 19 23 8
f 20 24 7
f 21 13 11
f 22 14 12
f 23 15 9
f 24 16 10
f 9 1 5
f 10 2 6
f 11 3 7
f 12 4 8
f 13 21 17
f 14 22 18
f 15 23 19
f 16 24 20
