v 0.0 0.9270509831248422 2.4270509831248424
v 0.0 0.9270509831248422 -2.4270509831248424
v 0.0 -0.9270509831248422 2.4270509831248424
v 0.0 -0.9270509831248422 -2.4270509831248424
v 2.4270509831248424 0.0 0.9270509831248422
v 2.4270509831248424 0.0 -0.9270509831248422
v -2.4270509831248424 0.0 0.9270509831248422
v -2.4270509831248424 0.0 -0.9270509831248422
v 0.9270509831248422 2.4270509831248424 0.0
v 0.9270509831248422 -2.4270509831248424 0.0
v -0.9270509831248422 2.4270509831248424 0.0
v -0.9270509831248422 -2.4270509831248424 0.0
v 1.3305869973355013 0.0 2.152934986677507
v 1.3305869973355013 0.0 -2.152934986677507
v -1.3305869973355013 0.0 2.152934986677507
v -1.3305869973355013 0.0 -2.152934986677507
v 2.152934986677507 1.3305869973355013 0.0
v 2.152934986677507 -1.3305869973355013 0.0
v -2.152934986677507 1.3305869973355013 0.0
v -2.152934986677507 -1.3305869973355013 0.0
v 0.0 2.152934986677507 1.3305869973355013
v 0.0 2.152934986677507 -1.3305869973355013
v 0.0 -2.152934986677507 1.3305869973355013
v 0.0 -2.152934986677507 -1.3305869973355013
v 1.5 1.5 1.5
v 1.5 1.5 -1.5
v 1.5 -1.5 1.5
v 1.5 -1.5 -1.5
v -1.5 1.5 1.5
v -1.5 1.5 -1.5
v -1.5 -1.5 1.5
v -1.5 -1.5 -1.5
f 13 1 3
f 13 3 27
f 13 27 5
f 13 5 25
f 13 25 1
f 14 4 2
f 14 2 26
f 14 26 6
f 14 6 28
f 14 28 4
f 15 3 1
f 15 1 29
f 15 29 7
f 15 7 31
f 15 31 3
f 16 2 4
f 16 4 32
f 16 32 8
f 16 8 30
f 16 30 2
f 17 5 6
f 17 6 26
f 17 26 9
f 17 9 25
f 17 25 5
f 18 6 5
f 18 5 27
f 18 27 10
f 18 10 28
f 18 28 6
f 19 8 7
f 19 7 29
f 19 29 11
f 19 11 30
f 19 30 8
f 20 7 8
f 20 8 32
f 20 32 12
f 20 12 31
f 20 31 7
f 21 9 11
f 21 11 29
f 21 29 1
f 21 1 25
f 21 25 9
f 22 11 9
f 22 9 26
f 22 26 2
f 22 2 30
f 22 30 11
f 23 12 10
f 23 10 27
f 23 27 3
f 23 3 31
f 23 31 12
f 24 10 12
f 24 12 32
f 24 32 4
f 24 4 28
f 24 28 10
