v 0.0 0.6180339887498949 1.618033988749895
v 0.0 0.6180339887498949 -1.618033988749895
v 0.0 -0.6180339887498949 1.618033988749895
v 0.0 -0.6180339887498949 -1.618033988749895
v 1.618033988749895 0.0 0.6180339887498949
v 1.618033988749895 0.0 -0.6180339887498949
v -1.618033988749895 0.0 0.6180339887498949
v -1.618033988749895 0.0 -0.6180339887498949
v 0.6180339887498949 1.618033988749895 0.0
v 0.6180339887498949 -1.618033988749895 0.0
v -0.6180339887498949 1.618033988749895 0.0
v -0.6180339887498949 -1.618033988749895 0.0
v 0.0 0.0 1.3416407864998738
v 0.0 0.0 -1.3416407864998738
v 1.3416407864998738 0.0 0.0
v -1.3416407864998738 0.0 0.0
v 0.0 1.3416407864998738 0.0
v 0.0 -1.3416407864998738 0.0
v 0.41458980337503154 0.6708203932499369 1.0854101966249685
v 0.41458980337503154 0.6708203932499369 -1.0854101966249685
v 0.41458980337503154 -0.6708203932499369 1.0854101966249685
v 0.41458980337503154 -0.6708203932499369 -1.0854101966249685
v -0.41458980337503154 0.6708203932499369 1.0854101966249685
v -0.41458980337503154 0.6708203932499369 -1.0854101966249685
v -0.41458980337503154 -0.6708203932499369 1.0854101966249685
v -0.41458980337503154 -0.6708203932499369 -1.0854101966249685
v 1.0854101966249685 0.41458980337503154 0.6708203932499369
v 1.0854101966249685 0.41458980337503154 -0.6708203932499369
v 1.0854101966249685 -0.41458980337503154 0.6708203932499369
v 1.0854101966249685 -0.41458980337503154 -0.6708203932499369
v -1.0854101966249685 0.41458980337503154 0.6708203932499369
v -1.0854101966249685 0.41458980337503154 -0.6708203932499369
v -1.0854101966249685 -0.41458980337503154 0.6708203932499369
v -1.0854101966249685 -0.41458980337503154 -0.6708203932499369
v 0.6708203932499369 1.0854101966249685 0.41458980337503154
v 0.6708203932499369 1.0854101966249685 -0.41458980337503154
v 0.6708203932499369 -1.0854101966249685 0.41458980337503154
v 0.6708203932499369 -1.0854101966249685 -0.41458980337503154
v -0.6708203932499369 1.0854101966249685 0.41458980337503154
v -0.6708203932499369 1.0854101966249685 -0.41458980337503154
v -0.6708203932499369 -1.0854101966249685 0.41458980337503154
v -0.6708203932499369 -1.0854101966249685 -0.41458980337503154
v 1.0 1.0 1.0
v 1.0 1.0 -1.0
v 1.0 -1.0 1.0
v 1.0 -1.0 -1.0
v -1.0 1.0 1.0
v -1.0 1.0 -1.0
v -1.0 -1.0 1.0
v -1.0 -1.0 -1.0
f 1 17 9 23
f 1 29 45 19
f 1 33 7 13
f 2 17 11 20
f 2 34 50 24
f 2 30 6 14
f 3 18 12 21
f 3 31 47 25
f 3 27 5 13
f 4 18 10 26
f 4 28 44 22
f 4 32 8 14
f 5 13 1 29
f 5 36 44 27
f 5 38 10 15
f 6 14 4 28
f 6 37 45 30
f 6 35 9 15
f 7 13 3 31
f 7 42 50 33
f 7 40 11 16
f 8 14 2 34
f 8 39 47 32
f 8 41 12 16
f 9 15 5 36
f 9 23 47 35
f 9 24 2 17
f 10 15 6 37
f 10 26 50 38
f 10 25 3 18
f 11 16 8 39
f 11 20 44 40
f 11 19 1 17
f 12 16 7 42
f 12 21 45 41
f 12 22 4 18
f 43 21 3 27
f 43 39 11 19
f 43 28 6 35
f 44 22 46 20
f 44 27 43 28
f 44 40 48 36
f 45 19 43 21
f 45 30 46 29
f 45 41 49 37
f 46 20 2 30
f 46 42 12 22
f 46 29 5 38
f 47 25 49 23
f 47 32 48 31
f 47 35 43 39
f 48 26 4 32
f 48 36 9 24
f 48 31 7 40
f 49 23 1 33
f 49 37 10 25
f 49 34 8 41
f 50 24 48 26
f 50 33 49 34
f 50 38 46 42
