v 0.5 0.5 1.2071067811865475
v 0.5 0.5 -1.2071067811865475
v 0.5 -0.5 1.2071067811865475
v 0.5 -0.5 -1.2071067811865475
v -0.5 0.5 1.2071067811865475
v -0.5 0.5 -1.2071067811865475
v -0.5 -0.5 1.2071067811865475
v -0.5 -0.5 -1.2071067811865475
v 1.2071067811865475 0.5 0.5
v 1.2071067811865475 0.5 -0.5
v 1.2071067811865475 -0.5 0.5
v 1.2071067811865475 -0.5 -0.5
v -1.2071067811865475 0.5 0.5
v -1.2071067811865475 0.5 -0.5
v -1.2071067811865475 -0.5 0.5
v -1.2071067811865475 -0.5 -0.5
v 0.5 1.2071067811865475 0.5
v 0.5 1.2071067811865475 -0.5
v 0.5 -1.2071067811865475 0.5
v 0.5 -1.2071067811865475 -0.5
v -0.5 1.2071067811865475 0.5
v -0.5 1.2071067811865475 -0.5
v -0.5 -1.2071067811865475 0.5
v -0.5 -1.2071067811865475 -0.5
f 1 5 7 3
f 2 4 8 6
f 9 11 12 10
f 13 14 16 15
f 17 18 22 21
f 19 23 24 20
f 1 3 11 9
f 1 17 21 5
f 8 4 20 24
f 8 16 14 6
f 12 4 2 10
f 12 11 19 20
f 13 15 7 5
f 13 21 22 14
f 18 2 6 22
f 18 17 9 10
f 23 15 16 24
f 23 19 3 7
f 1 9 17
f 2 18 10
f 3 19 11
f 4 12 20
f 5 21 13
f 6 14 22
f 7 15 23
f 8 24 16
