v 0.9045084971874737 0.0 1.4635254915624212
v 0.9045084971874737 0.0 -1.4635254915624212
v -0.9045084971874737 0.0 1.4635254915624212
v -0.9045084971874737 0.0 -1.4635254915624212
v 1.4635254915624212 0.9045084971874737 0.0
v 1.4635254915624212 -0.9045084971874737 0.0
v -1.4635254915624212 0.9045084971874737 0.0
v -1.4635254915624212 -0.9045084971874737 0.0
v 0.0 1.4635254915624212 0.9045084971874737
v 0.0 1.4635254915624212 -0.9045084971874737
v 0.0 -1.4635254915624212 0.9045084971874737
v 0.0 -1.4635254915624212 -0.9045084971874737
v 0.0 0.5590169943749475 1.4635254915624212
v 0.0 0.5590169943749475 -1.4635254915624212
v 0.0 -0.5590169943749475 1.4635254915624212
v 0.0 -0.5590169943749475 -1.4635254915624212
v 1.4635254915624212 0.0 0.5590169943749475
v 1.4635254915624212 0.0 -0.5590169943749475
v -1.4635254915624212 0.0 0.5590169943749475
v -1.4635254915624212 0.0 -0.5590169943749475
v 0.5590169943749475 1.4635254915624212 0.0
v 0.5590169943749475 -1.4635254915624212 0.0
v -0.5590169943749475 1.4635254915624212 0.0
v -0.5590169943749475 -1.4635254915624212 0.0
v 0.9045084971874737 0.9045084971874737 0.9045084971874737
v 0.9045084971874737 0.9045084971874737 -0.9045084971874737
v 0.9045084971874737 -0.9045084971874737 0.9045084971874737
v 0.9045084971874737 -0.9045084971874737 -0.9045084971874737
v -0.9045084971874737 0.9045084971874737 0.9045084971874737
v -0.9045084971874737 0.9045084971874737 -0.9045084971874737
v -0.9045084971874737 -0.9045084971874737 0.9045084971874737
v -0.9045084971874737 -0.9045084971874737 -0.9045084971874737
f 1 13 3 15
f 1 15 11 27
f 1 27 6 17
f 2 14 10 26
f 2 26 5 18
f 2 18 6 28
f 3 29 7 19
f 3 19 8 31
f 3 31 11 15
f 4 20 7 30
f 4 30 10 14
f 4 14 2 16
f 5 21 9 25
f 5 25 1 17
f 5 17 6 18
f 8 19 7 20
f 8 20 4 32
f 8 32 12 24
f 9 23 7 29
f 9 29 3 13
f 9 13 1 25
f 10 30 7 23
f 10 23 9 21
f 10 21 5 26
f 11 31 8 24
f 11 24 12 22
f 11 22 6 27
f 12 32 4 16
f 12 16 2 28
f 12 28 6 22
