v 0.5 0.5 2.118033988749895
v 0.5 0.5 -2.118033988749895
v 0.5 -0.5 2.118033988749895
v 0.5 -0.5 -2.118033988749895
v -0.5 0.5 2.118033988749895
v -0.5 0.5 -2.118033988749895
v -0.5 -0.5 2.118033988749895
v -0.5 -0.5 -2.118033988749895
v 2.118033988749895 0.5 0.5
v 2.118033988749895 0.5 -0.5
v 2.118033988749895 -0.5 0.5
v 2.118033988749895 -0.5 -0.5
v -2.118033988749895 0.5 0.5
v -2.118033988749895 0.5 -0.5
v -2.118033988749895 -0.5 0.5
v -2.118033988749895 -0.5 -0.5
v 0.5 2.118033988749895 0.5
v 0.5 2.118033988749895 -0.5
v 0.5 -2.118033988749895 0.5
v 0.5 -2.118033988749895 -0.5
v -0.5 2.118033988749895 0.5
v -0.5 2.118033988749895 -0.5
v -0.5 -2.118033988749895 0.5
v -0.5 -2.118033988749895 -0.5
v 0.0 1.3090169943749475 1.8090169943749475
v 0.0 1.3090169943749475 -1.8090169943749475
v 0.0 -1.3090169943749475 1.8090169943749475
v 0.0 -1.3090169943749475 -1.8090169943749475
v 1.8090169943749475 0.0 1.3090169943749475
v 1.8090169943749475 0.0 -1.3090169943749475
v -1.8090169943749475 0.0 1.3090169943749475
v -1.8090169943749475 0.0 -1.3090169943749475
v 1.3090169943749475 1.8090169943749475 0.0
v 1.3090169943749475 -1.8090169943749475 0.0
v -1.3090169943749475 1.8090169943749475 0.0
v -1.3090169943749475 -1.8090169943749475 0.0
v 1.3090169943749475 0.8090169943749475 1.618033988749895
v 1.3090169943749475 0.8090169943749475 -1.618033988749895
v 1.3090169943749475 -0.8090169943749475 1.618033988749895
v 1.3090169943749475 -0.8090169943749475 -1.618033988749895
v -1.3090169943749475 0.8090169943749475 1.618033988749895
v -1.3090169943749475 0.8090169943749475 -1.618033988749895
v -1.3090169943749475 -0.8090169943749475 1.618033988749895
v -1.3090169943749475 -0.8090169943749475 -1.618033988749895
v 1.618033988749895 1.3090169943749475 0.8090169943749475
v 1.618033988749895 1.3090169943749475 -0.8090169943749475
v 1.618033988749895 -1.3090169943749475 0.8090169943749475
v 1.618033988749895 -1.3090169943749475 -0.8090169943749475
v -1.618033988749895 1.3090169943749475 0.8090169943749475
v -1.618033988749895 1.3090169943749475 -0.8090169943749475
v -1.618033988749895 -1.3090169943749475 0.8090169943749475
v -1.618033988749895 -1.3090169943749475 -0.8090169943749475
v 0.8090169943749475 1.618033988749895 1.3090169943749475
v 0.8090169943749475 1.618033988749895 -1.3090169943749475
v 0.8090169943749475 -1.618033988749895 1.3090169943749475
v 0.8090169943749475 -1.618033988749895 -1.3090169943749475
v -0.8090169943749475 1.618033988749895 1.3090169943749475
v -0.8090169943749475 1.618033988749895 -1.3090169943749475
v -0.8090169943749475 -1.618033988749895 1.3090169943749475
v -0.8090169943749475 -1.618033988749895 -1.3090169943749475
f 25 53 17 21 57
f 26 58 22 18 54
f 27 59 23 19 55
f 28 56 20 24 60
f 29 37 1 3 39
f 30 40 4 2 38
f 31 43 7 5 41
f 32 42 6 8 44
f 33 45 9 10 46
f 34 48 12 11 47
f 35 50 14 13 49
f 36 51 15 16 52
f 1 37 53 25
f 2 26 54 38
f 3 27 55 39
f 4 40 56 28
f 5 25 57 41
f 6 42 58 26
f 7 43 59 27
f 8 28 60 44
f 9 45 37 29
f 10 30 38 46
f 11 29 39 47
f 12 48 40 30
f 13 31 41 49
f 14 50 42 32
f 15 51 43 31
f 16 32 44 52
f 17 53 45 33
f 18 33 46 54
f 19 34 47 55
f 20 56 48 34
f 21 35 49 57
f 22 58 50 35
f 23 59 51 36
f 24 36 52 60
f 1 5 7 3
f 2 4 8 6
f 9 11 12 10
f 13 14 16 15
f 17 18 22 21
f 19 23 24 20
f 25 5 1
f 26 2 6
f 27 3 7
f 28 8 4
f 29 11 9
f 30 10 12
f 31 13 15
f 32 16 14
f 33 18 17
f 34 19 20
f 35 21 22
f 36 24 23
f 37 45 53
f 38 54 46
f 39 55 47
f 40 48 56
f 41 57 49
f 42 50 58
f 43 51 59
f 44 60 52
