v 0.0 0.0 1.0606601717798212
v 0.0 0.0 -1.0606601717798212
v 1.0606601717798212 0.0 0.0
v -1.0606601717798212 0.0 0.0
v 0.0 1.0606601717798212 0.0
v 0.0 -1.0606601717798212 0.0
v 0.5303300858899106 0.5303300858899106 0.5303300858899106
v 0.5303300858899106 0.5303300858899106 -0.5303300858899106
v 0.5303300858899106 -0.5303300858899106 0.5303300858899106
v 0.5303300858899106 -0.5303300858899106 -0.5303300858899106
v -0.5303300858899106 0.5303300858899106 0.5303300858899106
v -0.5303300858899106 0.5303300858899106 -0.5303300858899106
v -0.5303300858899106 -0.5303300858899106 0.5303300858899106
v -0.5303300858899106 -0.5303300858899106 -0.5303300858899106
f 7 1 9 3
f 7 3 8 5
f 7 5 11 1
f 10 2 8 3
f 10 3 9 6
f 10 6 14 2
f 12 2 14 4
f 12 4 11 5
f 12 5 8 2
f 13 1 11 4
f 13 4 14 6
f 13 6 9 1
