v 0.0 0.5 -0.30901699437494745
v 0.0 0.5 0.30901699437494745
v 0.0 -0.5 -0.30901699437494745
v 0.0 -0.5 0.30901699437494745
v 0.5 -0.30901699437494745 0.0
v -0.5 -0.30901699437494745 0.0
v 0.5 0.30901699437494745 0.0
v -0.5 0.30901699437494745 0.0
v -0.30901699437494745 0.0 0.5
v -0.30901699437494745 0.0 -0.5
v 0.30901699437494745 0.0 0.5
v 0.30901699437494745 0.0 -0.5
f 1 3 8 12 6
f 1 6 2 10 9
f 1 9 7 8 11
f 2 4 7 9 5
f 2 5 1 11 12
f 2 12 8 7 10
f 3 1 5 10 7
f 3 7 4 12 11
f 3 11 6 5 9
f 4 2 6 11 8
f 4 8 3 9 10
f 4 10 5 6 12
