v 0.0 0.0 1.590990257669732
v 0.0 0.0 -1.590990257669732
v 1.590990257669732 0.0 0.0
v -1.590990257669732 0.0 0.0
v 0.0 1.590990257669732 0.0
v 0.0 -1.590990257669732 0.0
v 1.0606601717798212 1.0606601717798212 1.0606601717798212
v 1.0606601717798212 1.0606601717798212 -1.0606601717798212
v 1.0606601717798212 -1.0606601717798212 1.0606601717798212
v 1.0606601717798212 -1.0606601717798212 -1.0606601717798212
v -1.0606601717798212 1.0606601717798212 1.0606601717798212
v -1.0606601717798212 1.0606601717798212 -1.0606601717798212
v -1.0606601717798212 -1.0606601717798212 1.0606601717798212
v -1.0606601717798212 -1.0606601717798212 -1.0606601717798212
f 1 7 11
f 1 11 13
f 1 13 9
f 1 9 7
f 2 8 10
f 2 10 14
f 2 14 12
f 2 12 8
f 3 7 9
f 3 9 10
f 3 10 8
f 3 8 7
f 4 11 12
f 4 12 14
f 4 14 13
f 4 13 11
f 5 7 8
f 5 8 12
f 5 12 11
f 5 11 7
f 6 9 13
f 6 13 14
f 6 14 10
f 6 10 9
