v 1.8090169943749475 0.0 2.9270509831248424
v 1.8090169943749475 0.0 -2.9270509831248424
v -1.8090169943749475 0.0 2.9270509831248424
v -1.8090169943749475 0.0 -2.9270509831248424
v 2.9270509831248424 1.8090169943749475 0.0
v 2.9270509831248424 -1.8090169943749475 0.0
v -2.9270509831248424 1.8090169943749475 0.0
v -2.9270509831248424 -1.8090169943749475 0.0
v 0.0 2.9270509831248424 1.8090169943749475
v 0.0 2.9270509831248424 -1.8090169943749475
v 0.0 -2.9270509831248424 1.8090169943749475
v 0.0 -2.9270509831248424 -1.8090169943749475
v 0.0 1.0495531792613397 2.747765896306699
v 0.0 1.0495531792613397 -2.747765896306699
v 0.0 -1.0495531792613397 2.747765896306699
v 0.0 -1.0495531792613397 -2.747765896306699
v 2.747765896306699 0.0 1.0495531792613397
v 2.747765896306699 0.0 -1.0495531792613397
v -2.747765896306699 0.0 1.0495531792613397
v -2.747765896306699 0.0 -1.0495531792613397
v 1.0495531792613397 2.747765896306699 0.0
v 1.0495531792613397 -2.747765896306699 0.0
v -1.0495531792613397 2.747765896306699 0.0
v -1.0495531792613397 -2.747765896306699 0.0
v 1.698212717045359 1.698212717045359 1.698212717045359
v 1.698212717045359 1.698212717045359 -1.698212717045359
v 1.698212717045359 -1.698212717045359 1.698212717045359
v 1.698212717045359 -1.698212717045359 -1.698212717045359
v -1.698212717045359 1.698212717045359 1.698212717045359
v -1.698212717045359 1.698212717045359 -1.698212717045359
v -1.698212717045359 -1.698212717045359 1.698212717045359
v -1.698212717045359 -1.698212717045359 -1.698212717045359
f 13 1 9
f 13 9 3
f 13 3 1
f 14 2 4
f 14 4 10
f 14 10 2
f 15 1 3
f 15 3 11
f 15 11 1
f 16 2 12
f 16 12 4
f 16 4 2
f 17 1 6
f 17 6 5
f 17 5 1
f 18 2 5
f 18 5 6
f 18 6 2
f 19 3 7
f 19 7 8
f 19 8 3
f 20 4 8
f 20 8 7
f 20 7 4
f 21 5 10
f 21 10 9
f 21 9 5
f 22 6 11
f 22 11 12
f 22 12 6
f 23 7 9
f 23 9 10
f 23 10 7
f 24 8 12
f 24 12 11
f 24 11 8
f 25 1 5
f 25 5 9
f 25 9 1
f 26 2 10
f 26 10 5
f 26 5 2
f 27 1 11
f 27 11 6
f 27 6 1
f 28 2 6
f 28 6 12
f 28 12 2
f 29 3 9
f 29 9 7
f 29 7 3
f 30 4 7
f 30 7 10
f 30 10 4
f 31 3 8
f 31 8 11
f 31 11 3
f 32 4 12
f 32 12 8
f 32 8 4
