v 1.0606601717798212 1.0606601717798212 1.0606601717798212
v 1.0606601717798212 -1.0606601717798212 -1.0606601717798212
v -1.0606601717798212 -1.0606601717798212 1.0606601717798212
v -1.0606601717798212 1.0606601717798212 -1.0606601717798212
v 0.6363961030678927 -0.6363961030678927 0.6363961030678927
v 0.6363961030678927 0.6363961030678927 -0.6363961030678927
v -0.6363961030678927 0.6363961030678927 0.6363961030678927
v -0.6363961030678927 -0.6363961030678927 -0.6363961030678927
f 5 1 3
f 5 3 2
f 5 2 1
f 6 1 2
f 6 2 4
f 6 4 1
f 7 1 4
f 7 4 3
f 7 3 1
f 8 2 3
f 8 3 4
f 8 4 2
