v 0.0 0.0 2.414213562373095
v 0.0 0.0 -2.414213562373095
v 2.414213562373095 0.0 0.0
v -2.414213562373095 0.0 0.0
v 0.0 2.414213562373095 0.0
v 0.0 -2.414213562373095 0.0
v 1.0 1.0 1.0
v 1.0 1.0 -1.0
v 1.0 -1.0 1.0
v 1.0 -1.0 -1.0
v -1.0 1.0 1.0
v -1.0 1.0 -1.0
v -1.0 -1.0 1.0
v -1.0 -1.0 -1.0
f 7 1 3
f 7 3 5
f 7 5 1
f 8 2 5
f 8 5 3
f 8 3 2
f 9 1 6
f 9 6 3
f 9 3 1
f 10 2 3
f 10 3 6
f 10 6 2
f 11 1 5
f 11 5 4
f 11 4 1
f 12 2 4
f 12 4 5
f 12 5 2
f 13 1 4
f 13 4 6
f 13 6 1
f 14 2 6
f 14 6 4
f 14 4 2
