v 0.7071067811865476 0.0 1.4142135623730951
v 0.7071067811865476 0.0 -1.4142135623730951
v -0.7071067811865476 0.0 1.4142135623730951
v -0.7071067811865476 0.0 -1.4142135623730951
v 1.4142135623730951 0.7071067811865476 0.0
v 1.4142135623730951 -0.7071067811865476 0.0
v -1.4142135623730951 0.7071067811865476 0.0
v -1.4142135623730951 -0.7071067811865476 0.0
v 0.0 1.4142135623730951 0.7071067811865476
v 0.0 1.4142135623730951 -0.7071067811865476
v 0.0 -1.4142135623730951 0.7071067811865476
v 0.0 -1.4142135623730951 -0.7071067811865476
v 0.0 0.7071067811865476 1.4142135623730951
v 0.0 0.7071067811865476 -1.4142135623730951
v 0.0 -0.7071067811865476 1.4142135623730951
v 0.0 -0.7071067811865476 -1.4142135623730951
v 1.4142135623730951 0.0 0.7071067811865476
v 1.4142135623730951 0.0 -0.7071067811865476
v -1.4142135623730951 0.0 0.7071067811865476
v -1.4142135623730951 0.0 -0.7071067811865476
v 0.7071067811865476 1.4142135623730951 0.0
v 0.7071067811865476 -1.4142135623730951 0.0
v -0.7071067811865476 1.4142135623730951 0.0
v -0.7071067811865476 -1.4142135623730951 0.0
f 1 15 11 22 6 17
f 2 14 10 21 5 18
f 3 13 9 23 7 19
f 4 16 12 24 8 20
f 5 21 9 13 1 17
f 6 22 12 16 2 18
f 8 24 11 15 3 19
f 7 23 10 14 4 20
f 1 13 3 15
f 2 16 4 14
f 5 17 6 18
f 7 20 8 19
f 9 21 10 23
f 11 24 12 22
