v 1.2071067811865475 0.5 1.2071067811865475
v 1.2071067811865475 0.5 -1.2071067811865475
v 1.2071067811865475 -0.5 1.2071067811865475
v 1.2071067811865475 -0.5 -1.2071067811865475
v -1.2071067811865475 0.5 1.2071067811865475
v -1.2071067811865475 0.5 -1.2071067811865475
v -1.2071067811865475 -0.5 1.2071067811865475
v -1.2071067811865475 -0.5 -1.2071067811865475
v 1.2071067811865475 1.2071067811865475 0.5
v 1.2071067811865475 1.2071067811865475 -0.5
v 1.2071067811865475 -1.2071067811865475 0.5
v 1.2071067811865475 -1.2071067811865475 -0.5
v -1.2071067811865475 1.2071067811865475 0.5
v -1.2071067811865475 1.2071067811865475 -0.5
v -1.2071067811865475 -1.2071067811865475 0.5
v -1.2071067811865475 -1.2071067811865475 -0.5
v 0.5 1.2071067811865475 1.2071067811865475
v 0.5 1.2071067811865475 -1.2071067811865475
v 0.5 -1.2071067811865475 1.2071067811865475
v 0.5 -1.2071067811865475 -1.2071067811865475
v -0.5 1.2071067811865475 1.2071067811865475
v -0.5 1.2071067811865475 -1.2071067811865475
v -0.5 -1.2071067811865475 1.2071067811865475
v -0.5 -1.2071067811865475 -1.2071067811865475
f 1 3 11 12 4 2 10 9
f 1 17 21 5 7 23 19 3
f 13 14 6 8 16 15 7 5
f 13 21 17 9 10 18 22 14
f 20 24 8 6 22 18 2 4
f 20 12 11 19 23 15 16 24
f 1 9 17
f 2 18 10
f 3 19 11
f 4 12 20
f 5 21 13
f 6 14 22
f 7 15 23
f 8 24 16
