v 1.2071067811865475 0.5 1.9142135623730951
v 1.2071067811865475 0.5 -1.9142135623730951
v 1.2071067811865475 -0.5 1.9142135623730951
v 1.2071067811865475 -0.5 -1.9142135623730951
v -1.2071067811865475 0.5 1.9142135623730951
v -1.2071067811865475 0.5 -1.9142135623730951
v -1.2071067811865475 -0.5 1.9142135623730951
v -1.2071067811865475 -0.5 -1.9142135623730951
v 1.9142135623730951 1.2071067811865475 0.5
v 1.9142135623730951 1.2071067811865475 -0.5
v 1.9142135623730951 -1.2071067811865475 0.5
v 1.9142135623730951 -1.2071067811865475 -0.5
v -1.9142135623730951 1.2071067811865475 0.5
v -1.9142135623730951 1.2071067811865475 -0.5
v -1.9142135623730951 -1.2071067811865475 0.5
v -1.9142135623730951 -1.2071067811865475 -0.5
v 0.5 1.9142135623730951 1.2071067811865475
v 0.5 1.9142135623730951 -1.2071067811865475
v 0.5 -1.9142135623730951 1.2071067811865475
v 0.5 -1.9142135623730951 -1.2071067811865475
v -0.5 1.9142135623730951 1.2071067811865475
v -0.5 1.9142135623730951 -1.2071067811865475
v -0.5 -1.9142135623730951 1.2071067811865475
v -0.5 -1.9142135623730951 -1.2071067811865475
v 0.5 1.2071067811865475 1.9142135623730951
v 0.5 1.2071067811865475 -1.9142135623730951
v 0.5 -1.2071067811865475 1.9142135623730951
v 0.5 -1.2071067811865475 -1.9142135623730951
v -0.5 1.2071067811865475 1.9142135623730951
v -0.5 1.2071067811865475 -1.9142135623730951
v -0.5 -1.2071067811865475 1.9142135623730951
v -0.5 -1.2071067811865475 -1.9142135623730951
v 1.9142135623730951 0.5 1.2071067811865475
v 1.9142135623730951 0.5 -1.2071067811865475
v 1.9142135623730951 -0.5 1.2071067811865475
v 1.9142135623730951 -0.5 -1.2071067811865475
v -1.9142135623730951 0.5 1.2071067811865475
v -1.9142135623730951 0.5 -1.2071067811865475
v -1.9142135623730951 -0.5 1.2071067811865475
v -1.9142135623730951 -0.5 -1.2071067811865475
v 1.2071067811865475 1.9142135623730951 0.5
v 1.2071067811865475 1.9142135623730951 -0.5
v 1.2071067811865475 -1.9142135623730951 0.5
v 1.2071067811865475 -1.9142135623730951 -0.5
v -1.2071067811865475 1.9142135623730951 0.5
v -1.2071067811865475 1.9142135623730951 -0.5
v -1.2071067811865475 -1.9142135623730951 0.5
v -1.2071067811865475 -1.9142135623730951 -0.5
f 1 25 29 5 7 31 27 3
f 2 4 28 32 8 6 30 26
f 9 33 35 11 12 36 34 10
f 13 14 38 40 16 15 39 37
f 17 41 42 18 22 46 45 21
f 19 23 47 48 24 20 44 43
f 1 33 9 41 17 25
f 2 26 18 42 10 34
f 3 27 19 43 11 35
f 4 36 12 44 20 28
f 5 29 21 45 13 37
f 6 38 14 46 22 30
f 7 39 15 47 23 31
f 8 32 24 48 16 40
f 1 3 35 33
f 2 34 36 4
f 5 37 39 7
f 6 8 40 38
f 9 10 42 41
f 11 43 44 12
f 13 45 46 14
f 15 16 48 47
f 17 21 29 25
f 18 26 30 22
f 19 27 31 23
f 20 24 32 28
