v 0.3535533905932738 -0.3535533905932738 1.0606601717798212
v 0.3535533905932738 0.3535533905932738 -1.0606601717798212
v -0.3535533905932738 0.3535533905932738 1.0606601717798212
v -0.3535533905932738 -0.3535533905932738 -1.0606601717798212
v 1.0606601717798212 -0.3535533905932738 0.3535533905932738
v 1.0606601717798212 0.3535533905932738 -0.3535533905932738
v -1.0606601717798212 0.3535533905932738 0.3535533905932738
v -1.0606601717798212 -0.3535533905932738 -0.3535533905932738
v 0.3535533905932738 -1.0606601717798212 0.3535533905932738
v 0.3535533905932738 1.0606601717798212 -0.3535533905932738
v -0.3535533905932738 1.0606601717798212 0.3535533905932738
v -0.3535533905932738 -1.0606601717798212 -0.3535533905932738
f 1 5 6 10 11 3
f 2 6 5 9 12 4
f 3 7 8 12 9 1
f 4 8 7 11 10 2
f 1 9 5
f 2 10 6
f 3 11 7
f 4 12 8
