v 0.5 0.0 2.4270509831248424
v 0.5 0.0 -2.4270509831248424
v -0.5 0.0 2.4270509831248424
v -0.5 0.0 -2.4270509831248424
v 2.4270509831248424 0.5 0.0
v 2.4270509831248424 -0.5 0.0
v -2.4270509831248424 0.5 0.0
v -2.4270509831248424 -0.5 0.0
v 0.0 2.4270509831248424 0.5
v 0.0 2.4270509831248424 -0.5
v 0.0 -2.4270509831248424 0.5
v 0.0 -2.4270509831248424 -0.5
v 1.0 0.8090169943749475 2.118033988749895
v 1.0 0.8090169943749475 -2.118033988749895
v 1.0 -0.8090169943749475 2.118033988749895
v 1.0 -0.8090169943749475 -2.118033988749895
v -1.0 0.8090169943749475 2.118033988749895
v -1.0 0.8090169943749475 -2.118033988749895
v -1.0 -0.8090169943749475 2.118033988749895
v -1.0 -0.8090169943749475 -2.118033988749895
v 2.118033988749895 1.0 0.8090169943749475
v 2.118033988749895 1.0 -0.8090169943749475
v 2.118033988749895 -1.0 0.8090169943749475
v 2.118033988749895 -1.0 -0.8090169943749475
v -2.118033988749895 1.0 0.8090169943749475
v -2.118033988749895 1.0 -0.8090169943749475
v -2.118033988749895 -1.0 0.8090169943749475
v -2.118033988749895 -1.0 -0.8090169943749475
v 0.8090169943749475 2.118033988749895 1.0
v 0.8090169943749475 2.118033988749895 -1.0
v 0.8090169943749475 -2.118033988749895 1.0
v 0.8090169943749475 -2.118033988749895 -1.0
v -0.8090169943749475 2.118033988749895 1.0
v -0.8090169943749475 2.118033988749895 -1.0
v -0.8090169943749475 -2.118033988749895 1.0
v -0.8090169943749475 -2.118033988749895 -1.0
v 0.5 1.618033988749895 1.8090169943749475
v 0.5 1.618033988749895 -1.8090169943749475
v 0.5 -1.618033988749895 1.8090169943749475
v 0.5 -1.618033988749895 -1.8090169943749475
v -0.5 1.618033988749895 1.8090169943749475
v -0.5 1.618033988749895 -1.8090169943749475
v -0.5 -1.618033988749895 1.8090169943749475
v -0.5 -1.618033988749895 -1.8090169943749475
v 1.8090169943749475 0.5 1.618033988749895
v 1.8090169943749475 0.5 -1.618033988749895
v 1.8090169943749475 -0.5 1.618033988749895
v 1.8090169943749475 -0.5 -1.618033988749895
v -1.8090169943749475 0.5 1.618033988749895
v -1.8090169943749475 0.5 -1.618033988749895
v -1.8090169943749475 -0.5 1.618033988749895
v -1.8090169943749475 -0.5 -1.618033988749895
v 1.618033988749895 1.8090169943749475 0.5
v 1.618033988749895 1.8090169943749475 -0.5
v 1.618033988749895 -1.8090169943749475 0.5
v 1.618033988749895 -1.8090169943749475 -0.5
v -1.618033988749895 1.8090169943749475 0.5
v -1.618033988749895 1.8090169943749475 -0.5
v -1.618033988749895 -1.8090169943749475 0.5
v -1.618033988749895 -1.8090169943749475 -0.5
f 1 3 19 43 39 15
f 2 4 18 42 38 14
f 3 1 13 37 41 17
f 4 2 16 40 44 20
f 5 6 24 48 46 22
f 6 5 21 45 47 23
f 7 8 27 51 49 25
f 8 7 26 50 52 28
f 9 10 34 58 57 33
f 10 9 29 53 54 30
f 11 12 32 56 55 31
f 12 11 35 59 60 36
f 13 45 21 53 29 37
f 14 38 30 54 22 46
f 15 39 31 55 23 47
f 16 48 24 56 32 40
f 17 41 33 57 25 49
f 18 50 26 58 34 42
f 19 51 27 59 35 43
f 20 44 36 60 28 52
f 1 15 47 45 13
f 2 14 46 48 16
f 3 17 49 51 19
f 4 20 52 50 18
f 5 22 54 53 21
f 6 23 55 56 24
f 7 25 57 58 26
f 8 28 60 59 27
f 9 33 41 37 29
f 10 30 38 42 34
f 11 31 39 43 35
f 12 36 44 40 32
