v 0.0 0.5 2.9270509831248424
v 0.0 0.5 -2.9270509831248424
v 0.0 -0.5 2.9270509831248424
v 0.0 -0.5 -2.9270509831248424
v 2.9270509831248424 0.0 0.5
v 2.9270509831248424 0.0 -0.5
v -2.9270509831248424 0.0 0.5
v -2.9270509831248424 0.0 -0.5
v 0.5 2.9270509831248424 0.0
v 0.5 -2.9270509831248424 0.0
v -0.5 2.9270509831248424 0.0
v -0.5 -2.9270509831248424 0.0
v 0.5 1.3090169943749475 2.618033988749895
v 0.5 1.3090169943749475 -2.618033988749895
v 0.5 -1.3090169943749475 2.618033988749895
v 0.5 -1.3090169943749475 -2.618033988749895
v -0.5 1.3090169943749475 2.618033988749895
v -0.5 1.3090169943749475 -2.618033988749895
v -0.5 -1.3090169943749475 2.618033988749895
v -0.5 -1.3090169943749475 -2.618033988749895
v 2.618033988749895 0.5 1.3090169943749475
v 2.618033988749895 0.5 -1.3090169943749475
v 2.618033988749895 -0.5 1.3090169943749475
v 2.618033988749895 -0.5 -1.3090169943749475
v -2.618033988749895 0.5 1.3090169943749475
v -2.618033988749895 0.5 -1.3090169943749475
v -2.618033988749895 -0.5 1.3090169943749475
v -2.618033988749895 -0.5 -1.3090169943749475
v 1.3090169943749475 2.618033988749895 0.5
v 1.3090169943749475 2.618033988749895 -0.5
v 1.3090169943749475 -2.618033988749895 0.5
v 1.3090169943749475 -2.618033988749895 -0.5
v -1.3090169943749475 2.618033988749895 0.5
v -1.3090169943749475 2.618033988749895 -0.5
v -1.3090169943749475 -2.618033988749895 0.5
v -1.3090169943749475 -2.618033988749895 -0.5
v 1.3090169943749475 1.618033988749895 2.118033988749895
v 1.3090169943749475 1.618033988749895 -2.118033988749895
v 1.3090169943749475 -1.618033988749895 2.118033988749895
v 1.3090169943749475 -1.618033988749895 -2.118033988749895
v -1.3090169943749475 1.618033988749895 2.118033988749895
v -1.3090169943749475 1.618033988749895 -2.118033988749895
v -1.3090169943749475 -1.618033988749895 2.118033988749895
v -1.3090169943749475 -1.618033988749895 -2.118033988749895
v 2.118033988749895 1.3090169943749475 1.618033988749895
v 2.118033988749895 1.3090169943749475 -1.618033988749895
v 2.118033988749895 -1.3090169943749475 1.618033988749895
v 2.118033988749895 -1.3090169943749475 -1.618033988749895
v -2.118033988749895 1.3090169943749475 1.618033988749895
v -2.118033988749895 1.3090169943749475 -1.618033988749895
v -2.118033988749895 -1.3090169943749475 1.618033988749895
v -2.118033988749895 -1.3090169943749475 -1.618033988749895
v 1.618033988749895 2.118033988749895 1.3090169943749475
v 1.618033988749895 2.118033988749895 -1.3090169943749475
v 1.618033988749895 -2.118033988749895 1.3090169943749475
v 1.618033988749895 -2.118033988749895 -1.3090169943749475
v -1.618033988749895 2.118033988749895 1.3090169943749475
v -1.618033988749895 2.118033988749895 -1.3090169943749475
v -1.618033988749895 -2.118033988749895 1.3090169943749475
v -1.618033988749895 -2.118033988749895 -1.3090169943749475
f 1 3 15 39 47 23 21 45 37 13
f 2 4 20 44 52 28 26 50 42 18
f 3 1 17 41 49 25 27 51 43 19
f 4 2 14 38 46 22 24 48 40 16
f 5 6 22 46 54 30 29 53 45 21
f 6 5 23 47 55 31 32 56 48 24
f 7 8 28 52 60 36 35 59 51 27
f 8 7 25 49 57 33 34 58 50 26
f 9 11 33 57 41 17 13 37 53 29
f 10 12 36 60 44 20 16 40 56 32
f 11 9 30 54 38 14 18 42 58 34
f 12 10 31 55 39 15 19 43 59 35
f 1 13 17
f 2 18 14
f 3 19 15
f 4 16 20
f 5 21 23
f 6 24 22
f 7 27 25
f 8 26 28
f 9 29 30
f 10 32 31
f 11 34 33
f 12 35 36
f 37 45 53
f 38 54 46
f 39 55 47
f 40 48 56
f 41 57 49
f 42 50 58
f 43 51 59
f 44 60 52
