v 0.5 0.5 3.73606797749979
v 0.5 0.5 -3.73606797749979
v 0.5 -0.5 3.73606797749979
v 0.5 -0.5 -3.73606797749979
v -0.5 0.5 3.73606797749979
v -0.5 0.5 -3.73606797749979
v -0.5 -0.5 3.73606797749979
v -0.5 -0.5 -3.73606797749979
v 3.73606797749979 0.5 0.5
v 3.73606797749979 0.5 -0.5
v 3.73606797749979 -0.5 0.5
v 3.73606797749979 -0.5 -0.5
v -3.73606797749979 0.5 0.5
v -3.73606797749979 0.5 -0.5
v -3.73606797749979 -0.5 0.5
v -3.73606797749979 -0.5 -0.5
v 0.5 3.73606797749979 0.5
v 0.5 3.73606797749979 -0.5
v 0.5 -3.73606797749979 0.5
v 0.5 -3.73606797749979 -0.5
v -0.5 3.73606797749979 0.5
v -0.5 3.73606797749979 -0.5
v -0.5 -3.73606797749979 0.5
v -0.5 -3.73606797749979 -0.5
v 1.0 1.3090169943749475 3.4270509831248424
v 1.0 1.3090169943749475 -3.4270509831248424
v 1.0 -1.3090169943749475 3.4270509831248424
v 1.0 -1.3090169943749475 -3.4270509831248424
v -1.0 1.3090169943749475 3.4270509831248424
v -1.0 1.3090169943749475 -3.4270509831248424
v -1.0 -1.3090169943749475 3.4270509831248424
v -1.0 -1.3090169943749475 -3.4270509831248424
v 3.4270509831248424 1.0 1.3090169943749475
v 3.4270509831248424 1.0 -1.3090169943749475
v 3.4270509831248424 -1.0 1.3090169943749475
v 3.4270509831248424 -1.0 -1.3090169943749475
v -3.4270509831248424 1.0 1.3090169943749475
v -3.4270509831248424 1.0 -1.3090169943749475
v -3.4270509831248424 -1.0 1.3090169943749475
v -3.4270509831248424 -1.0 -1.3090169943749475
v 1.3090169943749475 3.4270509831248424 1.0
v 1.3090169943749475 3.4270509831248424 -1.0
v 1.3090169943749475 -3.4270509831248424 1.0
v 1.3090169943749475 -3.4270509831248424 -1.0
v -1.3090169943749475 3.4270509831248424 1.0
v -1.3090169943749475 3.4270509831248424 -1.0
v -1.3090169943749475 -3.4270509831248424 1.0
v -1.3090169943749475 -3.4270509831248424 -1.0
v 0.5 2.118033988749895 3.118033988749895
v 0.5 2.118033988749895 -3.118033988749895
v 0.5 -2.118033988749895 3.118033988749895
v 0.5 -2.118033988749895 -3.118033988749895
v -0.5 2.118033988749895 3.118033988749895
v -0.5 2.118033988749895 -3.118033988749895
v -0.5 -2.118033988749895 3.118033988749895
v -0.5 -2.118033988749895 -3.118033988749895
v 3.118033988749895 0.5 2.118033988749895
v 3.118033988749895 0.5 -2.118033988749895
v 3.118033988749895 -0.5 2.118033988749895
v 3.118033988749895 -0.5 -2.118033988749895
v -3.118033988749895 0.5 2.118033988749895
v -3.118033988749895 0.5 -2.118033988749895
v -3.118033988749895 -0.5 2.118033988749895
v -3.118033988749895 -0.5 -2.118033988749895
v 2.118033988749895 3.118033988749895 0.5
v 2.118033988749895 3.118033988749895 -0.5
v 2.118033988749895 -3.118033988749895 0.5
v 2.118033988749895 -3.118033988749895 -0.5
v -2.118033988749895 3.118033988749895 0.5
v -2.118033988749895 3.118033988749895 -0.5
v -2.118033988749895 -3.118033988749895 0.5
v -2.118033988749895 -3.118033988749895 -0.5
v 1.8090169943749475 1.618033988749895 2.9270509831248424
v 1.8090169943749475 1.618033988749895 -2.9270509831248424
v 1.8090169943749475 -1.618033988749895 2.9270509831248424
v 1.8090169943749475 -1.618033988749895 -2.9270509831248424
v -1.8090169943749475 1.618033988749895 2.9270509831248424
v -1.8090169943749475 1.618033988749895 -2.9270509831248424
v -1.8090169943749475 -1.618033988749895 2.9270509831248424
v -1.8090169943749475 -1.618033988749895 -2.9270509831248424
v 2.9270509831248424 1.8090169943749475 1.618033988749895
v 2.9270509831248424 1.8090169943749475 -1.618033988749895
v 2.9270509831248424 -1.8090169943749475 1.618033988749895
v 2.9270509831248424 -1.8090169943749475 -1.618033988749895
v -2.9270509831248424 1.8090169943749475 1.618033988749895
v -2.9270509831248424 1.8090169943749475 -1.618033988749895
v -2.9270509831248424 -1.8090169943749475 1.618033988749895
v -2.9270509831248424 -1.8090169943749475 -1.618033988749895
v 1.618033988749895 2.9270509831248424 1.8090169943749475
v 1.618033988749895 2.9270509831248424 -1.8090169943749475
v 1.618033988749895 -2.9270509831248424 1.8090169943749475
v 1.618033988749895 -2.9270509831248424 -1.8090169943749475
v -1.618033988749895 2.9270509831248424 1.8090169943749475
v -1.618033988749895 2.9270509831248424 -1.8090169943749475
v -1.618033988749895 -2.9270509831248424 1.8090169943749475
v -1.618033988749895 -2.9270509831248424 -1.8090169943749475
v 1.3090169943749475 2.4270509831248424 2.618033988749895
v 1.3090169943749475 2.4270509831248424 -2.618033988749895
v 1.3090169943749475 -2.4270509831248424 2.618033988749895
v 1.3090169943749475 -2.4270509831248424 -2.618033988749895
v -1.3090169943749475 2.4270509831248424 2.618033988749895
v -1.3090169943749475 2.4270509831248424 -2.618033988749895
v -1.3090169943749475 -2.4270509831248424 2.618033988749895
v -1.3090169943749475 -2.4270509831248424 -2.618033988749895
v 2.618033988749895 1.3090169943749475 2.4270509831248424
v 2.618033988749895 1.3090169943749475 -2.4270509831248424
v 2.618033988749895 -1.3090169943749475 2.4270509831248424
v 2.618033988749895 -1.3090169943749475 -2.4270509831248424
v -2.618033988749895 1.3090169943749475 2.4270509831248424
v -2.618033988749895 1.3090169943749475 -2.4270509831248424
v -2.618033988749895 -1.3090169943749475 2.4270509831248424
v -2.618033988749895 -1.3090169943749475 -2.4270509831248424
v 2.4270509831248424 2.618033988749895 1.3090169943749475
v 2.4270509831248424 2.618033988749895 -1.3090169943749475
v 2.4270509831248424 -2.618033988749895 1.3090169943749475
v 2.4270509831248424 -2.618033988749895 -1.3090169943749475
v -2.4270509831248424 2.618033988749895 1.3090169943749475
v -2.4270509831248424 2.618033988749895 -1.3090169943749475
v -2.4270509831248424 -2.618033988749895 1.3090169943749475
v -2.4270509831248424 -2.618033988749895 -1.3090169943749475
f 1 3 27 75 107 59 57 105 73 25
f 2 26 74 106 58 60 108 76 28 4
f 5 29 77 109 61 63 111 79 31 7
f 6 8 32 80 112 64 62 110 78 30
f 9 10 34 82 114 66 65 113 81 33
f 11 35 83 115 67 68 116 84 36 12
f 13 37 85 117 69 70 118 86 38 14
f 15 16 40 88 120 72 71 119 87 39
f 17 21 45 93 101 53 49 97 89 41
f 18 42 90 98 50 54 102 94 46 22
f 19 43 91 99 51 55 103 95 47 23
f 20 24 48 96 104 56 52 100 92 44
f 1 25 49 53 29 5
f 2 6 30 54 50 26
f 3 7 31 55 51 27
f 4 28 52 56 32 8
f 9 33 57 59 35 11
f 10 12 36 60 58 34
f 13 15 39 63 61 37
f 14 38 62 64 40 16
f 17 41 65 66 42 18
f 19 20 44 68 67 43
f 21 22 46 70 69 45
f 23 47 71 72 48 24
f 73 105 81 113 89 97
f 74 98 90 114 82 106
f 75 99 91 115 83 107
f 76 108 84 116 92 100
f 77 101 93 117 85 109
f 78 110 86 118 94 102
f 79 111 87 119 95 103
f 80 104 96 120 88 112
f 1 5 7 3
f 2 4 8 6
f 9 11 12 10
f 13 14 16 15
f 17 18 22 21
f 19 23 24 20
f 25 73 97 49
f 26 50 98 74
f 27 51 99 75
f 28 76 100 52
f 29 53 101 77
f 30 78 102 54
f 31 79 103 55
f 32 56 104 80
f 33 81 105 57
f 34 58 106 82
f 35 59 107 83
f 36 84 108 60
f 37 61 109 85
f 38 86 110 62
f 39 87 111 63
f 40 64 112 88
f 41 89 113 65
f 42 66 114 90
f 43 67 115 91
f 44 92 116 68
f 45 69 117 93
f 46 94 118 70
f 47 95 119 71
f 48 72 120 96
